<svg width="1512" height="982" viewBox="0 0 1512 982" fill="none" xmlns="http://www.w3.org/2000/svg">
<path d="M-170.11 650.877C-165.905 634.057 -154.603 616.249 -145.044 602.065C-72.0975 493.822 26.3451 398.249 120.124 308.533C244.666 189.386 376.775 71.5004 527.771 -13.3625C610.694 -59.967 700.66 -103.713 795.412 -118.902C813.43 -121.79 862.242 -134.594 866.487 -106.039C877.15 -34.3039 822.234 30.5827 784.694 85.251C695.55 215.068 595.966 338.734 497.098 461.236C390.256 593.619 276.787 719.875 160.526 843.982C127.528 879.206 93.0725 914.124 65.5401 953.974C61.4716 959.863 57.1011 966.438 56.1405 973.763C53.9431 990.518 79.0703 974.07 82.5254 972.114C185.168 913.986 274.943 828.775 358.907 747.182C492.253 617.604 614.427 479.092 712.465 320.571C789.223 196.458 851.627 60.8247 944.817 -52.4452C978.695 -93.623 1024.65 -140.041 1081.19 -143.968C1114.63 -146.29 1118.56 -122.828 1112.86 -93.1769C1103.69 -45.5217 1081.67 -0.916916 1058.6 41.2212C988.78 168.762 905.898 289.268 829.053 412.589C750.225 539.091 670.275 667.861 622.591 810.011C604.907 862.731 581.551 942.209 603.957 997.839C615.877 1027.43 659.072 1011.69 675.361 997.014C703.013 972.103 723.14 937.346 742.478 906.151C781.292 843.536 815.944 778.496 857.912 717.829C914.356 636.234 980.079 558.115 1061.08 499.824C1106.85 466.878 1160.79 432.941 1215.92 418.195C1223.64 416.132 1255.55 404.13 1263.08 413.083C1282.76 436.453 1228.59 505.458 1218.4 522.251C1174.92 593.878 1126.04 668.582 1099.33 748.502C1089.2 778.808 1083.64 810.941 1080.53 842.663C1077.73 871.302 1074.05 907.03 1091.25 932.371C1130.79 990.599 1199.95 900.787 1222.68 874.16C1302.14 781.088 1367.36 674.58 1459.49 592.831C1487.25 568.193 1516.34 545.406 1551.83 533.465C1580.61 523.784 1574.65 543.782 1565.36 565.456C1551.74 597.221 1530.96 625.173 1510.61 652.856C1499.61 667.808 1490.22 680.274 1486.2 698.37" stroke="black" stroke-width="3" stroke-linecap="round"/>
</svg>
